<svg id="visual" viewBox="0 0 900 600" width="900" height="600" xmlns="http://www.w3.org/2000/svg" xmlns:xlink="http://www.w3.org/1999/xlink" version="1.1"><rect x="0" y="0" width="900" height="600" fill="#f7f7f7"></rect><defs><linearGradient id="grad1_0" x1="33.3%" y1="0%" x2="100%" y2="100%"><stop offset="20%" stop-color="#f7f7f7" stop-opacity="1"></stop><stop offset="80%" stop-color="#f7f7f7" stop-opacity="1"></stop></linearGradient></defs><defs><linearGradient id="grad2_0" x1="0%" y1="0%" x2="66.7%" y2="100%"><stop offset="20%" stop-color="#f7f7f7" stop-opacity="1"></stop><stop offset="80%" stop-color="#f7f7f7" stop-opacity="1"></stop></linearGradient></defs><g transform="translate(900, 0)"><path d="M0 486.7C-66.2 475.2 -132.3 463.7 -177.6 428.7C-222.8 393.7 -247.1 335.2 -294.9 294.9C-342.6 254.5 -413.8 232.4 -449.7 186.3C-485.6 140.2 -486.2 70.1 -486.7 0L0 0Z" fill="#6600FF"></path></g><g transform="translate(0, 600)"><path d="M0 -486.7C45.3 -441.1 90.5 -395.5 157.7 -380.6C224.8 -365.8 313.8 -381.8 344.2 -344.2C374.6 -306.6 346.3 -215.5 360.3 -149.2C374.3 -83 430.5 -41.5 486.7 0L0 0Z" fill="#6600FF"></path></g></svg>